<svg width="150" height="150" viewBox="0 0 150 150" fill="none" xmlns="http://www.w3.org/2000/svg">
<rect width="150" height="150" rx="40" fill="#1E1E1E"/>
<path d="M61.6201 80.1823C61.9933 73.5164 65.2467 67.6265 70.1762 63.4647C75 59.3735 81.4788 56.8694 88.5913 56.8694C95.6686 56.8694 102.147 59.37 106.971 63.4647C111.901 67.6265 115.14 73.5164 115.527 80.1823C115.9 87.0246 113.15 93.4083 108.344 98.1344C103.415 102.931 96.4432 105.964 88.5913 105.964C80.7394 105.964 73.7325 102.952 68.8382 98.1344C64.0144 93.4083 61.268 87.0599 61.6553 80.2176L61.6201 80.1823Z" fill="white"/>
<path d="M76.3716 79.366C76.5634 75.9404 78.2353 72.9136 80.7685 70.775C83.2474 68.6725 86.5767 67.3857 90.2318 67.3857C93.8687 67.3857 97.1981 68.6707 99.677 70.775C102.21 72.9136 103.875 75.9404 104.074 79.366C104.266 82.8821 102.852 86.1626 100.383 88.5913C97.8494 91.0562 94.2668 92.615 90.2318 92.615C86.1968 92.615 82.596 91.0671 80.0809 88.5913C77.602 86.1626 76.1906 82.9002 76.3897 79.3841L76.3716 79.366Z" fill="#265787"/>
<path d="M54.6593 86.6158C54.6828 87.957 55.1098 90.5669 55.7504 92.5968C57.0966 96.9105 59.3873 100.898 62.5538 104.396C65.8108 108.003 69.8277 110.903 74.4598 112.969C79.3271 115.126 84.6106 116.231 90.0932 116.231C95.5757 116.224 100.859 115.1 105.727 112.914C110.359 110.83 114.376 107.93 117.633 104.305C120.817 100.771 123.097 96.7836 124.436 92.47C125.115 90.2951 125.543 88.0839 125.715 85.8727C125.884 83.6977 125.813 81.5047 125.504 79.3116C124.899 75.0523 123.423 71.0468 121.161 67.4219C119.098 64.0689 116.42 61.1508 113.236 58.6859L113.243 58.6805L81.2162 34.0312C81.1872 34.0094 81.1637 33.9858 81.1329 33.9659C79.034 32.3492 75.4875 32.3546 73.1896 33.975C70.8554 35.6134 70.584 38.3248 72.6649 40.0285L72.6558 40.0376L86.0274 50.9305L45.3154 50.9739H45.2611C41.8956 50.9776 38.6567 53.1851 38.0234 55.9944C37.3648 58.84 39.6519 61.2143 43.1622 61.2143L43.1568 61.227L63.7842 61.1871L26.872 89.4613C26.8249 89.4958 26.7743 89.532 26.7308 89.5664C23.2568 92.2307 22.1349 96.6713 24.3243 99.4624C26.5499 102.308 31.2725 102.326 34.7828 99.4787L54.8674 82.9855C54.8674 82.9855 54.5742 85.2148 54.5978 86.5378L54.6593 86.6158ZM106.409 94.0649C102.265 98.2879 96.4569 100.698 90.1963 100.698C83.9176 100.709 78.1094 98.3424 73.9658 94.1193C71.9393 92.0531 70.4555 89.6969 69.5327 87.1776C68.6335 84.6946 68.2842 82.0665 68.5158 79.4203C68.7348 76.8285 69.5056 74.3455 70.7414 72.1162C71.9501 69.9231 73.6184 67.9294 75.6631 66.2439C79.6981 62.9633 84.8187 61.169 90.1746 61.169C95.5486 61.1617 100.669 62.9252 104.704 66.2076C106.749 67.8823 108.414 69.8687 109.626 72.0618C110.862 74.2911 111.634 76.756 111.852 79.366C112.08 82.0121 111.73 84.6402 110.831 87.1233C109.912 89.6607 108.424 92.0169 106.398 94.0831L106.409 94.0649Z" fill="#EA7600"/>
</svg>
