<svg width="150" height="150" viewBox="0 0 150 150" fill="none" xmlns="http://www.w3.org/2000/svg">
<rect width="150" height="150" rx="40" fill="#1E1E1E"/>
<path d="M129.812 65.8895C127.425 64.2333 121.955 63.6122 117.678 64.4403C117.181 60.2998 114.894 56.6769 110.916 53.4681L108.628 51.8119L107.037 54.1927C105.048 57.298 104.053 61.6455 104.351 65.7859C104.451 67.2351 104.948 69.8229 106.44 72.1001C105.048 72.9282 102.163 73.9633 98.3842 73.9633H26.4781L26.2792 74.7914C25.5831 78.9319 25.5831 91.8708 33.7384 101.808C39.9046 109.364 49.0545 113.194 61.0885 113.194C87.1458 113.194 106.44 100.669 115.49 78.0003C119.071 78.1038 126.729 78.0003 130.608 70.2369C130.707 70.0299 130.906 69.6159 131.602 68.0632L132 67.2351L129.812 65.8895ZM83.9632 36.6992H73.0231V47.0504H83.9632V36.6992ZM83.9632 49.1206H73.0231V59.4717H83.9632V49.1206ZM71.034 49.1206H60.094V59.4717H71.034V49.1206ZM58.1049 49.1206H47.1648V59.4717H58.1049V49.1206ZM45.1757 61.542H34.2356V71.8931H45.1757V61.542ZM58.1049 61.542H47.1648V71.8931H58.1049V61.542ZM71.034 61.542H60.094V71.8931H71.034V61.542ZM83.9632 61.542H73.0231V71.8931H83.9632V61.542ZM96.8924 61.542H85.9523V71.8931H96.8924V61.542Z" fill="#2396ED"/>
</svg>
