<svg width="150" height="150" viewBox="0 0 150 150" fill="none" xmlns="http://www.w3.org/2000/svg">
<rect width="150" height="150" rx="40" fill="#1E1E1E"/>
<g clip-path="url(#clip0_2124_288)">
<path d="M58.7527 122C67.445 122 74.4996 114.981 74.4996 106.333V90.6667H58.7527C50.0604 90.6667 43.0059 97.6853 43.0059 106.333C43.0059 114.981 50.0604 122 58.7527 122Z" fill="#0ACF83"/>
<path d="M43.0059 75C43.0059 66.352 50.0604 59.3333 58.7527 59.3333H74.4996V90.6667H58.7527C50.0604 90.6667 43.0059 83.648 43.0059 75Z" fill="#A259FF"/>
<path d="M43.0059 43.6667C43.0059 35.0187 50.0604 28 58.7527 28H74.4996V59.3333H58.7527C50.0604 59.3333 43.0059 52.3147 43.0059 43.6667Z" fill="#F24E1E"/>
<path d="M74.5 28H90.2468C98.9391 28 105.994 35.0187 105.994 43.6667C105.994 52.3147 98.9391 59.3333 90.2468 59.3333H74.5V28Z" fill="#FF7262"/>
<path d="M105.994 75C105.994 83.648 98.9391 90.6667 90.2468 90.6667C81.5546 90.6667 74.5 83.648 74.5 75C74.5 66.352 81.5546 59.3333 90.2468 59.3333C98.9391 59.3333 105.994 66.352 105.994 75Z" fill="#1ABCFE"/>
</g>
<defs>
<clipPath id="clip0_2124_288">
<rect width="63" height="94" fill="white" transform="translate(43 28)"/>
</clipPath>
</defs>
</svg>
