<svg width="150" height="150" viewBox="0 0 150 150" fill="none" xmlns="http://www.w3.org/2000/svg">
<rect width="150" height="150" rx="40" fill="#1E1E1E"/>
<path d="M84.7567 29.9165C79.7976 24.1113 75.595 18.3062 74.6704 17.0622C74.5864 16.9793 74.4183 16.9793 74.3342 17.0622C73.4937 18.3062 69.207 24.1113 64.248 29.9165C21.8857 83.2413 70.8881 119.233 70.8881 119.233L71.3083 119.482C71.6445 125.039 72.5691 133 72.5691 133H74.4183H76.2674C76.2674 133 77.192 125.039 77.5282 119.482L77.9484 119.15C78.1165 119.233 127.119 83.2413 84.7567 29.9165ZM74.5023 118.404C74.5023 118.404 72.317 116.58 71.7286 115.584V115.502L74.4183 57.4497C74.4183 57.2838 74.6704 57.2838 74.6704 57.4497L77.3601 115.502V115.584C76.7717 116.58 74.5023 118.404 74.5023 118.404Z" fill="#00ED64"/>
</svg>
