<svg width="150" height="150" viewBox="0 0 150 150" fill="none" xmlns="http://www.w3.org/2000/svg">
<rect width="150" height="150" rx="40" fill="#1E1E1E"/>
<path d="M71.3143 25.8794C71.105 25.8984 70.4393 25.965 69.8401 26.0125C56.0212 27.2582 43.0772 34.7135 34.8791 46.1721C30.314 52.5432 27.3942 59.7702 26.291 67.4252C25.9011 70.0972 25.8535 70.8865 25.8535 74.5095C25.8535 78.1325 25.9011 78.9218 26.291 81.5939C28.935 99.8611 41.936 115.209 59.5686 120.895C62.7262 121.913 66.0549 122.607 69.8401 123.026C71.3143 123.187 77.6864 123.187 79.1605 123.026C85.6943 122.303 91.2295 120.686 96.6886 117.9C97.5255 117.472 97.6872 117.358 97.5731 117.263C97.497 117.206 93.9305 112.423 89.6507 106.641L81.871 96.1335L72.1227 81.708C66.7587 73.7773 62.3457 67.292 62.3077 67.292C62.2697 67.2825 62.2316 73.6917 62.2126 81.5178C62.1841 95.2206 62.1746 95.7721 62.0034 96.0954C61.7561 96.5614 61.5659 96.7516 61.1664 96.9608C60.8621 97.1129 60.5958 97.1415 59.1597 97.1415H57.5143L57.0769 96.8657C56.7915 96.685 56.5823 96.4473 56.4397 96.1715L56.2399 95.7436L56.2589 76.6776L56.2875 57.6021L56.5823 57.2313C56.7345 57.0316 57.0578 56.7748 57.2861 56.6512C57.676 56.461 57.8282 56.442 59.4735 56.442C61.4137 56.442 61.7371 56.5181 62.2411 57.0696C62.3838 57.2218 67.6622 65.1715 73.9772 74.7473C80.2923 84.323 88.9279 97.3982 93.1696 103.817L100.873 115.485L101.263 115.228C104.716 112.984 108.368 109.789 111.259 106.46C117.412 99.3951 121.378 90.7798 122.71 81.5939C123.1 78.9218 123.147 78.1325 123.147 74.5095C123.147 70.8865 123.1 70.0972 122.71 67.4252C120.066 49.158 107.065 33.8101 89.432 28.1236C86.322 27.1156 83.0123 26.4214 79.3032 26.003C78.3901 25.9079 72.1036 25.8033 71.3143 25.8794ZM91.2295 55.3009C91.686 55.5291 92.0569 55.9666 92.19 56.423C92.2661 56.6702 92.2852 61.9574 92.2661 73.8724L92.2376 90.97L89.2227 86.3485L86.1984 81.727V69.2985C86.1984 61.2632 86.2364 56.7463 86.2935 56.5276C86.4456 55.9951 86.7785 55.5767 87.235 55.3294C87.625 55.1297 87.7676 55.1107 89.2608 55.1107C90.6684 55.1107 90.9156 55.1297 91.2295 55.3009Z" fill="white"/>
<path d="M102.419 118.921C102.06 119.146 101.947 119.3 102.265 119.126C102.491 118.992 102.86 118.716 102.798 118.705C102.768 118.705 102.593 118.808 102.419 118.921ZM101.712 119.382C101.527 119.526 101.527 119.536 101.753 119.423C101.876 119.362 101.978 119.29 101.978 119.269C101.978 119.187 101.927 119.208 101.712 119.382ZM101.199 119.69C101.014 119.833 101.014 119.843 101.24 119.731C101.363 119.669 101.466 119.597 101.466 119.577C101.466 119.495 101.414 119.515 101.199 119.69ZM100.686 119.997C100.502 120.141 100.502 120.151 100.727 120.038C100.85 119.977 100.953 119.905 100.953 119.884C100.953 119.802 100.902 119.823 100.686 119.997ZM99.9072 120.407C99.5175 120.612 99.5381 120.694 99.9277 120.5C100.102 120.407 100.235 120.315 100.235 120.295C100.235 120.223 100.225 120.233 99.9072 120.407Z" fill="white"/>
</svg>
