<svg width="177" height="150" viewBox="0 0 177 150" fill="none" xmlns="http://www.w3.org/2000/svg">
<rect x="13" width="150" height="150" rx="40" fill="#1E1E1E"/>
<path fill-rule="evenodd" clip-rule="evenodd" d="M110.424 51.0001C110.307 51.0015 110.188 51.0291 110.083 51.0897C109.874 51.2109 109.743 51.4334 109.743 51.6726V68.8233C109.743 68.9918 109.663 69.1424 109.515 69.2269C109.367 69.3116 109.187 69.3116 109.038 69.2269L106.198 67.6127C105.775 67.372 105.258 67.3721 104.835 67.6127L93.4983 74.0694C93.0745 74.3107 92.8167 74.7749 92.8167 75.2576V88.1711C92.8167 88.6535 93.0748 89.0952 93.4983 89.3369L104.835 95.7936C105.259 96.0349 105.775 96.0349 106.198 95.7936L117.535 89.3369C117.959 89.0952 118.217 88.6535 118.217 88.1711V55.9771C118.217 55.4874 117.946 55.0278 117.513 54.7889L110.765 51.0673C110.659 51.009 110.542 50.9988 110.424 51.0001ZM37.4952 67.1194C37.279 67.128 37.0759 67.1653 36.8818 67.2764L25.5449 73.7331C25.1224 73.9741 24.8633 74.413 24.8633 74.8989L24.886 92.2289C24.886 92.47 25.012 92.6938 25.2267 92.8119C25.4372 92.9362 25.6985 92.9362 25.9083 92.8119L32.6332 89.0006C33.0592 88.7508 33.3375 88.3164 33.3375 87.8348V79.7415C33.3375 79.2587 33.5949 78.8156 34.0191 78.5757L36.8817 76.9391C37.0954 76.8172 37.3248 76.7598 37.5633 76.7598C37.797 76.7598 38.0372 76.8171 38.2449 76.9391L41.1075 78.5757C41.5318 78.8156 41.7891 79.2587 41.7891 79.7415V87.8348C41.7891 88.3164 42.0702 88.7536 42.4934 89.0006L49.2183 92.8119C49.4295 92.9362 49.6904 92.9362 49.8999 92.8119C50.1087 92.6938 50.2407 92.47 50.2407 92.2289L50.2634 74.8989C50.2634 74.413 50.0071 73.9741 49.5818 73.7331L38.2449 67.2764C38.0531 67.1653 37.8491 67.1282 37.6315 67.1194H37.4952ZM139.369 67.2764C139.132 67.2761 138.9 67.3352 138.687 67.4558L127.35 73.9125C126.927 74.1538 126.669 74.5955 126.669 75.0783V87.9917C126.669 88.4773 126.946 88.9176 127.373 89.1575L138.619 95.4797C139.034 95.7138 139.541 95.7313 139.959 95.502L146.775 91.7579C146.991 91.6396 147.138 91.4185 147.139 91.175C147.14 90.9315 147.011 90.7133 146.798 90.5921L135.393 84.1354C135.179 84.0152 135.029 83.7717 135.029 83.53V79.4946C135.029 79.2533 135.181 79.0322 135.393 78.9118L138.937 76.894C139.148 76.7736 139.407 76.7736 139.619 76.894L143.163 78.9118C143.374 79.0322 143.504 79.2533 143.504 79.4946V82.6782C143.504 82.9198 143.633 83.1406 143.844 83.261C144.057 83.3818 144.314 83.3823 144.526 83.261L151.319 79.3602C151.741 79.1185 152.001 78.6756 152.001 78.1944V75.078C152.001 74.5967 151.742 74.1539 151.319 73.9122L140.05 67.4555C139.838 67.3341 139.605 67.2767 139.369 67.2764ZM105.471 76.9166C105.53 76.9166 105.6 76.931 105.653 76.9611L109.538 79.1807C109.644 79.2409 109.72 79.3519 109.72 79.4721V83.9111C109.72 84.0316 109.644 84.1427 109.538 84.2026L105.653 86.422C105.547 86.4816 105.418 86.4816 105.312 86.422L101.427 84.2026C101.322 84.1423 101.246 84.0316 101.246 83.9111V79.4721C101.246 79.3519 101.322 79.2412 101.427 79.1807L105.312 76.9615C105.365 76.9314 105.412 76.917 105.471 76.917V76.9166Z" fill="#62644E"/>
<path fill-rule="evenodd" clip-rule="evenodd" d="M71.5517 67.2091C71.3154 67.2091 71.0816 67.2679 70.8701 67.3885L59.5331 73.8228C59.1093 74.0638 58.8516 74.5287 58.8516 75.011V87.9244C58.8516 88.4073 59.1096 88.8487 59.5331 89.0902L70.8701 95.547C71.2939 95.7885 71.8094 95.7885 72.2332 95.547L83.5702 89.0902C83.9933 88.8487 84.2518 88.4073 84.2518 87.9244V75.011C84.2518 74.528 83.994 74.0638 83.5702 73.8228L72.2332 67.3885C72.0217 67.2679 71.7879 67.2091 71.5517 67.2091ZM139.346 78.7328C139.301 78.7328 139.251 78.7328 139.21 78.755L137.029 80.0105C136.947 80.0564 136.892 80.1419 136.892 80.2347V82.7008C136.892 82.7936 136.947 82.8787 137.029 82.925L139.21 84.158C139.292 84.2046 139.379 84.2046 139.46 84.158L141.641 82.925C141.722 82.8791 141.777 82.7936 141.777 82.7008V80.2347C141.777 80.1419 141.722 80.0567 141.641 80.0105L139.46 78.755C139.419 78.7313 139.391 78.7328 139.346 78.7328Z" fill="#83CD29"/>
</svg>
