<svg width="150" height="150" viewBox="0 0 150 150" fill="none" xmlns="http://www.w3.org/2000/svg">
<rect width="150" height="150" rx="40" fill="#1E1E1E"/>
<g clip-path="url(#clip0_2124_377)">
<path d="M81.9811 53.9316L78.5588 59.9769L66.8551 39.2971L30.9267 102.772H55.2527C55.2527 106.111 57.9058 108.817 61.1786 108.817H30.9267C28.8098 108.817 26.8539 107.665 25.7956 105.794C24.7373 103.924 24.7374 101.62 25.7959 99.7495L61.7243 36.2745C62.7828 34.404 64.7392 33.2517 66.8564 33.2517C68.9736 33.2517 70.9299 34.404 71.9885 36.2745L81.9811 53.9316Z" fill="#00C58E"/>
<path d="M107.917 99.7495L85.4034 59.9769L81.9812 53.9316L78.5589 59.9769L56.0478 99.7495C54.9894 101.62 54.9893 103.924 56.0475 105.794C57.1058 107.665 59.0618 108.817 61.1787 108.817H102.779C104.896 108.817 106.853 107.666 107.912 105.795C108.971 103.925 108.971 101.62 107.912 99.7495H107.917ZM61.1787 102.772L81.9812 66.0221L102.779 102.772L61.1787 102.772Z" fill="#2F495E"/>
<path d="M124.013 105.795C122.954 107.665 120.998 108.817 118.882 108.817H102.778C106.051 108.817 108.704 106.111 108.704 102.772H118.869L90.0249 51.8082L85.4027 59.9769L81.9805 53.9316L84.894 48.7856C85.9526 46.9151 87.9089 45.7628 90.0261 45.7628C92.1433 45.7628 94.0997 46.9151 95.1582 48.7856L124.013 99.7495C125.071 101.62 125.071 103.924 124.013 105.795Z" fill="#108775"/>
</g>
<defs>
<clipPath id="clip0_2124_377">
<rect width="100" height="76" fill="white" transform="translate(25 33)"/>
</clipPath>
</defs>
</svg>
