<svg width="150" height="150" viewBox="0 0 150 150" fill="none" xmlns="http://www.w3.org/2000/svg">
<rect width="150" height="150" rx="40" fill="#1E1E1E"/>
<g clip-path="url(#clip0_2123_126)">
<path d="M74.5004 84.8175C79.8659 84.8175 84.2156 80.422 84.2156 75C84.2156 69.5779 79.8659 65.1825 74.5004 65.1825C69.1348 65.1825 64.7852 69.5779 64.7852 75C64.7852 80.422 69.1348 84.8175 74.5004 84.8175Z" fill="#61DAFB"/>
<path d="M74.4996 95.1139C103.29 95.1139 126.63 86.1086 126.63 75C126.63 63.8914 103.29 54.8861 74.4996 54.8861C45.7087 54.8861 22.3691 63.8914 22.3691 75C22.3691 86.1086 45.7087 95.1139 74.4996 95.1139Z" stroke="#61DAFB" stroke-width="5"/>
<path d="M57.2618 85.0569C71.6572 110.253 91.0445 126.176 100.565 120.622C110.085 115.067 106.133 90.1391 91.7371 64.9431C77.3417 39.747 57.9543 23.8242 48.4342 29.3785C38.9141 34.9328 42.8663 59.8609 57.2618 85.0569Z" stroke="#61DAFB" stroke-width="5"/>
<path d="M57.2622 64.9431C42.8668 90.1392 38.9145 115.067 48.4346 120.622C57.9547 126.176 77.3421 110.253 91.7375 85.057C106.133 59.8609 110.085 34.9328 100.565 29.3785C91.045 23.8242 71.6576 39.747 57.2622 64.9431Z" stroke="#61DAFB" stroke-width="5"/>
</g>
<defs>
<clipPath id="clip0_2123_126">
<rect width="109" height="98" fill="white" transform="translate(20 26)"/>
</clipPath>
</defs>
</svg>
