<svg width="150" height="150" viewBox="0 0 150 150" fill="none" xmlns="http://www.w3.org/2000/svg">
<rect width="150" height="150" rx="40" fill="#1E1E1E"/>
<g clip-path="url(#clip0_2124_245)">
<path d="M113.348 36.0136C103.57 21.9102 84.1041 17.778 70.1102 26.6712L45.4415 42.4814C38.7137 46.7034 34.0491 53.6203 32.7035 61.4356C31.5373 67.9932 32.5241 74.7305 35.6637 80.5695C33.5108 83.8034 32.0756 87.3966 31.4476 91.1695C30.0124 99.1644 31.8962 107.429 36.5608 113.986C46.4283 128.09 65.8044 132.222 79.7983 123.329L104.467 107.608C111.195 103.386 115.859 96.4695 117.205 88.6542C118.371 82.0966 117.384 75.3593 114.245 69.5203C116.398 66.2864 117.833 62.6932 118.461 58.9203C119.986 50.8356 118.102 42.5712 113.348 36.0136Z" fill="#FF3E00"/>
<path d="M67.6897 115.334C59.706 117.4 51.3635 114.256 46.6989 107.519C43.8283 103.566 42.7519 98.6254 43.5592 93.7746C43.7386 92.9661 43.918 92.2475 44.0974 91.439L44.546 90.0017L45.8018 90.9C48.7621 93.0559 51.9914 94.6729 55.4899 95.7508L56.3869 96.0203L56.2972 96.9186C56.2075 98.1763 56.5664 99.5237 57.284 100.602C58.7193 102.668 61.231 103.656 63.653 103.027C64.1912 102.847 64.7295 102.668 65.178 102.398L89.757 86.678C91.0128 85.8695 91.8202 84.7017 92.0893 83.2644C92.3584 81.8271 91.9996 80.3 91.1922 79.1322C89.757 77.0661 87.2453 76.1678 84.8232 76.7966C84.285 76.9763 83.7468 77.1559 83.2983 77.4254L73.8793 83.4441C72.3543 84.4322 70.6499 85.1509 68.8559 85.6C60.8722 87.6661 52.5297 84.522 47.865 77.7847C45.0842 73.8322 43.918 68.8915 44.8151 64.0407C45.6224 59.3695 48.493 55.1475 52.5297 52.6322L77.1984 36.9119C78.7233 35.9237 80.4277 35.2051 82.2218 34.6661C90.2055 32.6 98.548 35.7441 103.213 42.4814C106.083 46.4339 107.16 51.3746 106.352 56.2254C106.173 57.0339 105.993 57.7525 105.724 58.561L105.276 59.9983L104.02 59.1C101.06 56.9441 97.8304 55.3271 94.3319 54.2492L93.4349 53.9797L93.5246 53.0814C93.6143 51.8237 93.2554 50.4763 92.5378 49.3983C91.1025 47.3322 88.5908 46.4339 86.1688 47.0627C85.6306 47.2424 85.0923 47.422 84.6438 47.6915L60.0648 63.4119C58.809 64.2203 58.0016 65.3881 57.7325 66.8254C57.4634 68.2627 57.8222 69.7898 58.6296 70.9576C60.0648 73.0237 62.5766 73.922 64.9986 73.2932C65.5368 73.1136 66.075 72.9339 66.5235 72.6644L75.9425 66.6458C77.4675 65.6576 79.1719 64.939 80.9659 64.4C88.9496 62.3339 97.2921 65.478 101.957 72.2153C104.827 76.1678 105.904 81.1085 105.096 85.9593C104.289 90.6305 101.419 94.8525 97.3819 97.3678L72.7131 113.088C71.1882 114.076 69.4838 114.795 67.6897 115.334Z" fill="white"/>
</g>
<defs>
<clipPath id="clip0_2124_245">
<rect width="88" height="106" fill="white" transform="translate(31 22)"/>
</clipPath>
</defs>
</svg>
