<svg width="150" height="150" viewBox="0 0 150 150" fill="none" xmlns="http://www.w3.org/2000/svg">
<rect width="150" height="150" rx="40" fill="#1E1E1E"/>
<mask id="mask0_2124_376" style="mask-type:luminance" maskUnits="userSpaceOnUse" x="21" y="43" width="106" height="64">
<path d="M21 43H127V106.818H21V43Z" fill="white"/>
</mask>
<g mask="url(#mask0_2124_376)">
<path fill-rule="evenodd" clip-rule="evenodd" d="M74 43C59.8667 43 51.0333 50.0909 47.5 64.2727C52.8 57.1818 58.9833 54.5227 66.05 56.2955C70.0819 57.3059 72.9636 60.2427 76.1534 63.4908C81.3493 68.7833 87.3639 74.9091 100.5 74.9091C114.633 74.9091 123.467 67.8182 127 53.6364C121.7 60.7273 115.517 63.3864 108.45 61.6136C104.418 60.6032 101.536 57.6664 98.3466 54.4183C93.1507 49.1258 87.1361 43 74 43ZM47.5 74.9091C33.3667 74.9091 24.5333 82 21 96.1818C26.3 89.0909 32.4833 86.4318 39.55 88.2045C43.5819 89.217 46.4636 92.1518 49.6534 95.3999C54.8493 100.692 60.8639 106.818 74 106.818C88.1333 106.818 96.9667 99.7273 100.5 85.5455C95.2 92.6364 89.0167 95.2955 81.95 93.5227C77.9181 92.5123 75.0364 89.5755 71.8466 86.3274C66.6507 81.0348 60.6361 74.9091 47.5 74.9091Z" fill="#38BDF8"/>
</g>
</svg>
