<svg width="150" height="150" viewBox="0 0 150 150" fill="none" xmlns="http://www.w3.org/2000/svg">
<rect width="150" height="150" rx="40" fill="#1E1E1E"/>
<path d="M101.486 64.9724C101.486 64.9724 93.4759 90.1299 92.8232 92.2065C92.5859 90.0705 86.7118 44.9177 86.7118 44.9177C73.0651 44.9177 65.7671 54.6484 61.9104 64.9131C61.9104 64.9131 52.1797 90.1299 51.3491 92.2659C51.2897 90.3079 49.8657 65.2098 49.8657 65.2098C49.035 52.6311 37.5243 44.9771 28.209 44.9771L39.4824 113.389C53.7817 113.329 61.4951 103.658 65.5298 93.3932C65.5298 93.3932 74.1331 71.1431 74.4891 70.1345C74.5485 71.0838 80.6598 113.389 80.6598 113.389C95.0185 113.389 102.732 104.311 106.885 94.4019L126.999 44.9771C112.819 44.9771 105.343 54.6484 101.486 64.9724Z" fill="#4353FF"/>
</svg>
