<svg width="150" height="150" viewBox="0 0 150 150" fill="none" xmlns="http://www.w3.org/2000/svg">
<rect width="150" height="150" rx="40" fill="#1E1E1E"/>
<g clip-path="url(#clip0_2124_291)">
<path d="M30.4629 75.4987C30.4629 93.3256 40.8232 108.732 55.8465 116.032L34.3623 57.1696C31.8632 62.7708 30.4629 68.9693 30.4629 75.4987Z" fill="white"/>
<path d="M105.907 73.226C105.907 67.6599 103.907 63.8052 102.193 60.8049C99.9095 57.095 97.7696 53.9533 97.7696 50.2434C97.7696 46.1034 100.91 42.2495 105.333 42.2495C105.532 42.2495 105.722 42.2744 105.916 42.2855C97.9033 34.9446 87.2276 30.4626 75.5021 30.4626C59.7675 30.4626 45.9244 38.5354 37.8711 50.7628C38.9278 50.7945 39.9236 50.8168 40.7695 50.8168C45.4804 50.8168 52.7727 50.2452 52.7727 50.2452C55.2006 50.102 55.4868 53.6679 53.0615 53.955C53.0615 53.955 50.6216 54.2421 47.9066 54.3844L64.3079 103.168L74.1643 73.6082L67.1472 54.3827C64.7219 54.2404 62.4242 53.9533 62.4242 53.9533C59.9972 53.8111 60.2817 50.1003 62.7088 50.2434C62.7088 50.2434 70.1467 50.8151 74.5722 50.8151C79.2823 50.8151 86.5754 50.2434 86.5754 50.2434C89.005 50.1003 89.2904 53.6662 86.8642 53.9533C86.8642 53.9533 84.4192 54.2404 81.7094 54.3827L97.9856 102.797L102.478 87.7853C104.425 81.5559 105.907 77.0816 105.907 73.226Z" fill="white"/>
<path d="M76.2925 79.4382L62.7793 118.704C66.8141 119.89 71.0811 120.539 75.5024 120.539C80.7472 120.539 85.777 119.632 90.4588 117.986C90.3379 117.793 90.2282 117.588 90.1383 117.366L76.2925 79.4382Z" fill="white"/>
<path d="M115.021 53.8907C115.215 55.3253 115.325 56.8653 115.325 58.5219C115.325 63.0922 114.471 68.2298 111.9 74.6537L98.1426 114.429C111.532 106.621 120.539 92.1147 120.539 75.4995C120.539 67.6693 118.539 60.3061 115.021 53.8907Z" fill="white"/>
<path d="M75.5017 23C46.553 23 23 46.5507 23 75.4987C23 104.45 46.553 128 75.5017 128C104.45 128 128.006 104.45 128.006 75.4987C128.005 46.5507 104.45 23 75.5017 23ZM75.5017 125.594C47.8805 125.594 25.4073 103.121 25.4073 75.4987C25.4073 47.8782 47.8797 25.4073 75.5017 25.4073C103.122 25.4073 125.594 47.8782 125.594 75.4987C125.594 103.121 103.122 125.594 75.5017 125.594Z" fill="white"/>
</g>
<defs>
<clipPath id="clip0_2124_291">
<rect width="105" height="105" fill="white" transform="translate(23 23)"/>
</clipPath>
</defs>
</svg>
